<?xml version="1.0" encoding="utf-8"?>
<!-- Generator: Adobe Illustrator 27.0.0, SVG Export Plug-In . SVG Version: 6.00 Build 0)  -->
<svg version="1.1" id="Calque_1" xmlns="http://www.w3.org/2000/svg" xmlns:xlink="http://www.w3.org/1999/xlink" x="0px" y="0px"
	 viewBox="0 0 2338.71 1461.81" style="enable-background:new 0 0 2338.71 1461.81;" xml:space="preserve">
<style type="text/css">
	.st0{fill:#FFFFFF;}
</style>
<path class="st0" d="M460.92,1371.59c-5.01-1.07-10.07-1.93-15.01-3.25c-22.15-5.92-45.33-26.42-42.81-62.8
	c1.7-24.52,21.64-46.97,48.07-51.59c26.46-4.62,49.97,0.96,66.54,23.68c13.21,18.11,14.61,38.36,5.6,58.62
	c-9.05,20.34-25.82,30.99-47.61,34.13c-1.62,0.23-3.18,0.79-4.77,1.19C467.59,1371.59,464.26,1371.59,460.92,1371.59z
	 M465.51,1349.02c21.19,0.12,36.58-15.06,36.72-36.23c0.14-22.48-14.46-38.26-35.56-38.43c-21.86-0.17-37.44,15.12-37.74,37.06
	C428.63,1333.08,444.02,1348.89,465.51,1349.02z"/>
<path class="st0" d="M1698.36,1371.59c-5.01-1.07-10.07-1.93-15.01-3.25c-22.11-5.9-45.33-26.38-42.81-62.8
	c1.7-24.52,21.64-46.97,48.07-51.59c26.46-4.62,49.97,0.96,66.54,23.68c13.21,18.11,14.61,38.36,5.6,58.62
	c-9.04,20.34-25.82,30.99-47.61,34.13c-1.62,0.23-3.18,0.79-4.77,1.19C1705.02,1371.59,1701.69,1371.59,1698.36,1371.59z
	 M1702.95,1349.02c21.19,0.12,36.58-15.06,36.72-36.23c0.14-22.48-14.46-38.26-35.56-38.43c-21.86-0.17-37.44,15.12-37.74,37.06
	C1666.06,1333.08,1681.45,1348.89,1702.95,1349.02z"/>
<path class="st0" d="M1448.47,1371.59c-3.38-0.72-6.75-1.47-10.13-2.17c-28.57-5.95-47.02-29.12-46.72-58.69
	c0.28-28.62,19.55-51.78,47.81-56.75c20.37-3.59,39.81-1.52,56.71,11.91c2.06,1.64,3.9,3.56,6.36,5.83
	c-5.56,5.17-10.85,10.09-16.4,15.25c-1.25-1.03-2.35-1.95-3.46-2.85c-13.74-11.15-28.92-12.92-44.85-5.87
	c-15.57,6.89-23.11,24.08-19.37,42.33c3.34,16.28,17.28,28.24,34.06,28.21c6.85-0.01,13.71-1.76,20.52-2.91
	c2.84-0.48,3.9-2.39,3.83-5.41c-0.19-8.48,0.04-16.98-0.12-25.46c-0.06-3.09,0.71-4.64,4.11-4.52c5.15,0.18,10.32,0.14,15.48,0.02
	c3.04-0.07,4.03,1.21,4.01,4.18c-0.11,12.98,0.09,25.96-0.19,38.94c-0.04,1.85-1.67,4.31-3.3,5.39
	c-9.71,6.45-20.59,9.85-32.11,11.37c-1.78,0.23-3.51,0.81-5.26,1.23C1455.8,1371.59,1452.14,1371.59,1448.47,1371.59z"/>
<path class="st0" d="M1145.61,1371.59c-3.72-0.76-7.45-1.45-11.15-2.3c-18.95-4.33-32.76-18.74-34.38-38.04
	c-1.35-16.04-0.91-32.23-1.17-48.35c-0.12-7.82,0.2-15.66-0.11-23.47c-0.16-4.12,1.47-5.21,5.21-5.07
	c5.16,0.19,10.33,0.22,15.48-0.01c3.94-0.17,5.13,1.36,5.09,5.25c-0.17,18.64-0.3,37.3,0.05,55.94c0.12,6.23,0.94,12.66,2.77,18.59
	c3.22,10.41,11.5,15.03,24.33,14.87c11.89-0.15,19.84-5.28,23.08-15.38c1.15-3.59,1.97-7.45,2.01-11.2
	c0.23-20.81,0.29-41.62,0.12-62.43c-0.04-4.46,1.43-5.89,5.75-5.65c5.31,0.3,10.65,0.13,15.98,0.08c2.71-0.03,3.88,1.11,3.86,3.89
	c-0.14,23.31,0.59,46.65-0.51,69.91c-1.1,23.22-18.07,39.62-41.19,42.19c-1.44,0.16-2.82,0.78-4.23,1.19
	C1152.94,1371.59,1149.28,1371.59,1145.61,1371.59z"/>
<path class="st0" d="M1819.3,1371.59c-5.85-1.1-11.75-1.96-17.52-3.37c-8.24-2.02-16.21-4.79-23.2-10.32
	c2.87-6.33,5.66-12.48,8.61-18.99c10.43,6.37,21.18,10.83,32.98,11.29c6.37,0.25,12.91-0.52,19.16-1.85
	c4.74-1.01,8.06-4.47,8.47-9.89c0.43-5.61-2.76-8.97-7.39-10.59c-7.34-2.56-14.97-4.27-22.41-6.56c-6.65-2.05-13.4-3.95-19.76-6.7
	c-24.31-10.52-20.91-40-5.54-51.78c6.63-5.09,14.07-8.22,22.28-9.29c16.76-2.19,33.13-1.08,48.79,6.07
	c3.84,1.75,4.94,3.63,3.01,7.57c-2.25,4.58-3.99,9.41-6.11,14.53c-9.78-5.05-19.59-8.77-30.27-8.52c-5.39,0.13-10.9,1-16.09,2.48
	c-5.07,1.44-7.85,5.63-7.87,10.98c-0.03,4.95,3.14,8.21,7.49,9.57c10.11,3.16,20.41,5.73,30.58,8.73c4.12,1.22,8.21,2.69,12.13,4.45
	c22.39,10.05,21.01,37.03,6.56,49.75c-7.49,6.6-16.4,9.89-26.17,11.2c-1.94,0.26-3.83,0.82-5.75,1.25
	C1827.3,1371.59,1823.3,1371.59,1819.3,1371.59z"/>
<path class="st0" d="M1924.25,1371.59c-5.85-1.1-11.75-1.96-17.52-3.37c-8.24-2.02-16.21-4.79-23.2-10.32
	c2.87-6.33,5.66-12.48,8.61-18.99c10.43,6.37,21.18,10.83,32.98,11.29c6.37,0.25,12.91-0.52,19.16-1.85
	c4.74-1.01,8.06-4.47,8.47-9.89c0.43-5.61-2.76-8.97-7.39-10.59c-7.34-2.56-14.97-4.27-22.41-6.56c-6.65-2.05-13.4-3.95-19.76-6.7
	c-24.3-10.52-20.91-40-5.54-51.78c6.63-5.09,14.07-8.22,22.28-9.29c16.76-2.19,33.13-1.08,48.79,6.07c3.84,1.75,4.94,3.63,3.01,7.57
	c-2.25,4.58-3.99,9.41-6.11,14.53c-9.78-5.05-19.59-8.77-30.27-8.52c-5.39,0.13-10.9,1-16.09,2.48c-5.07,1.44-7.85,5.63-7.87,10.98
	c-0.03,4.95,3.14,8.21,7.49,9.57c10.11,3.16,20.41,5.73,30.58,8.73c4.12,1.22,8.21,2.69,12.13,4.45
	c22.39,10.05,21.01,37.03,6.56,49.75c-7.49,6.6-16.4,9.89-26.17,11.2c-1.94,0.26-3.83,0.82-5.75,1.25
	C1932.25,1371.59,1928.25,1371.59,1924.25,1371.59z"/>
<path class="st0" d="M2219.84,986.6c-1.1,6.16-2.1,11.82-3.25,18.25c-6.93-0.88-13.61-1.67-20.28-2.59
	c-28.14-3.88-56.25-7.9-84.4-11.66c-25.52-3.4-51.06-6.74-76.63-9.69c-26.42-3.05-52.88-5.68-79.34-8.32
	c-23.65-2.36-47.31-4.66-71-6.67c-23.69-2.01-47.41-3.79-71.14-5.36c-31.87-2.11-63.74-4.18-95.64-5.78
	c-38.72-1.94-77.45-3.89-116.19-4.88c-40.78-1.03-81.59-0.96-122.38-1.31c-27.63-0.24-55.28-0.83-82.9-0.43
	c-39.44,0.56-78.87,1.68-118.29,2.94c-27.6,0.88-55.2,2.17-82.77,3.69c-29.73,1.64-59.43,3.73-89.14,5.71
	c-19.58,1.31-39.16,2.59-58.72,4.23c-24.35,2.04-48.68,4.37-73,6.71c-20.51,1.97-41.03,3.98-61.5,6.28
	c-23.94,2.69-47.85,5.61-71.75,8.61c-23.73,2.98-47.46,6.05-71.15,9.35c-24.51,3.41-48.99,7-73.44,10.78
	c-27.07,4.19-54.17,8.28-81.13,13.14c-42.15,7.59-84.35,15.07-126.25,23.9c-58.95,12.43-117.85,25.22-176.41,39.36
	c-80.39,19.4-160.16,41.21-238.25,68.68c-0.91,0.32-1.86,0.55-3.09,0.91c-2.11-4.9-4.17-9.6-6.16-14.33
	c-0.37-0.88-0.49-1.88-0.84-3.31c6.58-2.31,12.94-4.62,19.36-6.79c85.65-28.96,173.06-51.63,260.87-72.86
	c67.13-16.23,134.83-29.79,202.77-42.13c44.43-8.07,88.86-16.13,133.4-23.55c30.3-5.05,60.76-9.16,91.2-13.35
	c32.41-4.47,64.85-8.78,97.33-12.71c25.9-3.13,51.87-5.69,77.83-8.29c27.13-2.73,54.26-5.4,81.42-7.75
	c23.36-2.02,46.76-3.62,70.15-5.25c28.87-2.02,57.74-4.06,86.63-5.75c19.93-1.16,39.9-1.82,59.85-2.55
	c29.27-1.08,58.53-2.5,87.81-2.92c59.27-0.85,118.55-1.47,177.82-1.51c36.78-0.02,73.57,0.91,110.35,1.97
	c31.6,0.9,63.19,2.27,94.75,3.99c34.38,1.88,68.72,4.3,103.07,6.69c27.54,1.92,55.08,3.87,82.58,6.29
	c29.3,2.58,58.56,5.62,87.82,8.67c24.96,2.6,49.91,5.25,74.81,8.31c26.54,3.26,53.02,6.98,79.51,10.56
	c22.71,3.07,45.42,6.21,68.12,9.35C2214.67,985.55,2217.06,986.09,2219.84,986.6z"/>
<path class="st0" d="M513.29,826.77c-14.63,0-28.78,0.19-42.9-0.21c-1.96-0.06-4.44-2.64-5.66-4.66
	c-13.96-23.05-27.71-46.23-41.55-69.36c-26.23-43.82-52.48-87.63-78.75-131.43c-0.95-1.58-2.2-2.99-3.31-4.48
	c-0.4,0.15-0.8,0.29-1.2,0.44c0,69.63,0,139.25,0,209.24c-14.69,0-28.76,0-43.29,0c0-98.26,0-196.57,0-295.52
	c1.59-0.08,3.34-0.25,5.09-0.26c10.99-0.02,22,0.26,32.98-0.13c5.41-0.19,8.54,1.81,11.22,6.34c19.56,33.07,39.31,66.04,59.01,99.03
	c19.79,33.14,39.6,66.26,59.43,99.37c1.14,1.91,2.56,3.65,4.99,5.15c0.15-2.23,0.42-4.46,0.43-6.68
	c0.02-65.27,0.02-130.55,0.02-195.82c0-7.22,0.01-7.22,7.32-7.22c11.95,0,23.91,0,36.18,0C513.29,629.38,513.29,727.7,513.29,826.77
	z"/>
<path class="st0" d="M1435.61,679.02c1.22,75.71-64.62,152.87-155.07,150.92c-81.95-1.77-149.4-72.72-147.75-154.34
	c1.63-80.78,71.21-149.57,153.93-148.41C1365.13,528.28,1436.39,595.73,1435.61,679.02z M1284.71,571.92
	c-56.36-2.05-107.57,46.74-107.48,106.14c0.09,58.4,47.79,106.76,105.07,107.45c57.55,0.69,108.81-45.11,109.04-107.05
	C1391.56,617.02,1338.5,570.03,1284.71,571.92z"/>
<path class="st0" d="M1053.9,695.38c22.7,43.77,45.23,87.22,68.11,131.36c-16.32,0-31.77,0.15-47.21-0.21
	c-1.77-0.04-4.11-2.6-5.12-4.55c-16.93-32.43-33.69-64.94-50.5-97.43c-2.67-5.17-5.28-10.38-8.09-15.47
	c-3.12-5.66-8.15-8-14.51-7.87c-11.65,0.23-23.3,0.62-34.95,0.45c-4.76-0.07-6.22,1.2-6.2,6.09c0.2,37.3,0.11,74.61,0.11,111.91
	c0,2.13,0,4.25,0,6.73c-14.61,0-28.68,0-43.15,0c0-98.37,0-196.7,0-295.61c1.68-0.08,3.44-0.25,5.2-0.25
	c34.48-0.02,68.97-0.06,103.45,0c43.23,0.07,79.37,32.84,84.58,75.81c4.24,35-15.17,70.36-45.72,85.61
	C1058,692.89,1056.2,694.05,1053.9,695.38z M955.54,615.83c0,12.15,0.11,24.3-0.07,36.44c-0.06,3.9,1.28,5.24,5.2,5.21
	c20.14-0.14,40.28,0.09,60.42-0.12c20.89-0.22,38.54-16.3,40.74-36.69c2.18-20.22-11.16-40.13-31.18-44.53
	c-8.95-1.97-18.48-1.57-27.76-1.74c-13.81-0.25-27.63,0-41.44-0.07c-4.24-0.02-6.18,1.26-6.03,6.06
	C955.78,592.2,955.54,604.02,955.54,615.83z"/>
<path class="st0" d="M725.53,826.51c-14.7,0-28.65,0-43.07,0c0-98.5,0-196.91,0-296c2.02,0,3.96,0,5.9,0
	c33.97,0,67.94-0.02,101.91,0c43.65,0.03,79.69,31.63,85.37,74.81c6.01,45.7-26.42,89.24-71.75,95.18
	c-13.12,1.72-26.58,1.02-39.88,1.23c-10.65,0.17-21.31,0.02-31.97,0.04c-6.32,0.01-6.5,0.16-6.5,6.39
	c-0.01,37.29-0.01,74.58-0.01,111.87C725.53,822,725.53,823.97,725.53,826.51z M725.53,615.71c0,11.15,0,22.3,0,33.45
	c0,8.07,0.17,8.25,8,8.26c18.98,0.01,37.95-0.1,56.93,0.05c7.74,0.06,14.75-2.02,21.31-5.91c15.82-9.39,23.36-27.09,19.11-44.88
	c-4.26-17.87-18.9-31-37.07-31.68c-20.77-0.78-41.59-0.44-62.38-0.65c-4.5-0.05-6.06,1.96-5.98,6.42
	C725.68,592.41,725.53,604.06,725.53,615.71z"/>
<path class="st0" d="M105.49,755.38c9.11,16.39,23.16,25.19,41,28.42c21.25,3.84,41.19,1.89,57.94-13.43
	c7.04-6.44,12.29-14.02,12.9-23.98c0.61-9.98-3.91-17.65-11.14-23.96c-11.14-9.74-24.64-14.8-38.38-19.6
	c-17.85-6.23-35.89-12.13-53.14-19.77c-16.31-7.22-29.95-18.46-39.67-33.95c-17.79-28.34-12.07-79.98,24.14-103.68
	c15.58-10.2,32.51-15.4,50.9-17.2c23.73-2.32,46.44,0.74,67.94,11.24c10.24,5,19.32,11.63,27.46,20.8
	c-10.68,9.97-21.08,19.67-31.46,29.36c-0.71-0.29-1.23-0.37-1.58-0.67c-23.15-19.5-49.25-21.37-76.99-12.66
	c-17.65,5.54-27.87,21.53-25.66,39.59c0.99,8.12,5.64,14.03,11.63,19.11c12.36,10.49,27.45,15.24,42.39,20.48
	c15.97,5.59,32.17,10.81,47.48,17.89c17.99,8.32,32.81,21.12,42.26,38.96c15.86,29.94,8.03,66.56-18.77,90.54
	c-23.19,20.75-50.48,28.38-81.11,26.25c-27.98-1.95-52.57-11.71-72.17-31.91c-6.23-6.42-10.29-14.96-15.19-22.62
	c-1.18-1.84-1.99-4.1,1.15-5.25C80.05,764.72,92.64,760.09,105.49,755.38z"/>
<path class="st0" d="M1915.96,530.57c0,14.08-0.03,27.38,0.02,40.67c0.01,3.42-2.38,3.06-4.49,3.07
	c-9.82,0.04-19.65,0.02-29.47,0.02c-21.65,0-43.3-0.02-64.94,0.01c-7.11,0.01-7.62,0.53-7.63,7.7c-0.03,22.81,0.08,45.61-0.09,68.42
	c-0.03,4.56,1.43,5.97,6.02,5.93c23.48-0.21,46.96,0.02,70.44-0.19c4.43-0.04,5.77,1.3,5.66,5.65c-0.26,10.81-0.26,21.64,0,32.46
	c0.11,4.52-1.3,6.06-5.93,6.02c-23.15-0.2-46.29-0.1-69.44-0.08c-6.47,0-6.65,0.15-6.66,6.77c-0.03,22.81-0.03,45.61,0,68.42
	c0.01,6.62,1.29,7.59,8.03,7.57c31.31-0.09,62.61-0.08,93.92-0.1c2.4,0,4.65-0.13,4.61,3.48c-0.12,13.14-0.05,26.28-0.05,40.01
	c-2.02,0.1-3.77,0.25-5.52,0.25c-46.13,0.01-92.26-0.05-138.38,0.11c-4.53,0.02-5.96-1.13-5.96-5.77
	c0.12-94.89,0.11-189.78,0.01-284.67c-0.01-4.49,1.16-5.9,5.85-5.88c46.13,0.18,92.25,0.11,138.38,0.11
	C1911.98,530.57,1913.62,530.57,1915.96,530.57z"/>
<path class="st0" d="M1430.13,474.54c10.97,0,21.43-0.28,31.84,0.27c1.83,0.1,4.23,3.39,5.1,5.69
	c7.49,19.71,14.71,39.53,21.98,59.32c29.77,81.06,59.53,162.13,89.31,243.18c0.83,2.26,1.91,4.43,3.38,7.79
	c1.58-3.72,2.75-6.21,3.7-8.78c37.14-100.3,74.28-200.59,111.3-300.93c1.82-4.94,4.4-7.06,9.88-6.77
	c8.78,0.47,17.61,0.13,27.26,0.13c-0.91,2.68-1.56,4.82-2.35,6.9c-38.4,101.07-76.81,202.14-115.21,303.21
	c-5.6,14.75-11.32,29.46-16.71,44.28c-1.63,4.49-4.16,6.22-8.9,5.98c-6.64-0.34-13.34-0.43-19.97,0.02c-5.1,0.35-7.37-1.7-9.07-6.3
	c-16.17-43.78-32.53-87.48-48.84-131.21c-26.94-72.2-53.89-144.39-80.81-216.6C1431.33,478.89,1430.87,476.98,1430.13,474.54z"/>
<path class="st0" d="M2141.21,773.58c0,8.79,0.02,16.42-0.01,24.06c-0.02,4.49-0.4,9-0.14,13.47c0.7,12.23,0,10.4-9.52,13.03
	c-81.54,22.6-165.05-25.06-186.35-106.28c-21.58-82.28,26.51-164.95,108.27-185.81c27.34-6.97,54.62-6.03,81.74,1.74
	c4.4,1.26,6.01,3.46,5.9,8.14c-0.31,13.6-0.11,27.21-0.11,41.66c-29.44-14.14-58.88-16.35-88.93-4.68
	c-21.03,8.17-37.3,22.16-49.84,40.71c-24,35.49-23.66,84.27,0.9,119.26c15.42,21.96,36.11,36.56,62.09,43.3
	C2091.21,788.91,2116.25,785.09,2141.21,773.58z"/>
<path class="st0" d="M2223.47,826.7c-13.42,0-26.53,0.06-39.64-0.12c-0.93-0.01-2.26-1.55-2.65-2.64c-0.48-1.34-0.17-2.96-0.17-4.45
	c0-93.55,0-187.1,0-280.66c0-7.32,0.01-7.32,7.24-7.32c11.62,0,23.25,0,35.23,0C2223.47,629.93,2223.47,727.9,2223.47,826.7z"/>
<path class="st0" d="M260.74,1369.05c-8.34,0-15.94,0-24.32,0c0-22.68,0-45.15,0-67.62c-0.41-0.1-0.83-0.2-1.24-0.3
	c-0.96,1.44-1.98,2.83-2.86,4.31c-9.29,15.57-18.55,31.15-27.83,46.73c-4.02,6.75-13.08,6.91-17.13,0.27
	c-9.18-15.05-18.32-30.13-27.49-45.19c-0.91-1.5-1.92-2.93-3.98-4.15c0,21.8,0,43.61,0,65.79c-8.4,0-16.12,0-24.26,0
	c-0.1-1.65-0.28-3.26-0.28-4.87c-0.02-34.62,0.09-69.25-0.13-103.87c-0.03-4.84,1.81-5.29,5.99-5.92
	c11.67-1.78,18.25,2.78,23.78,13.19c9.66,18.19,21.03,35.46,31.7,53.12c1.01,1.67,2.08,3.31,3.62,5.73c1.37-2.16,2.33-3.6,3.21-5.08
	c12.32-20.73,24.7-41.43,36.86-62.25c1.92-3.28,4.01-4.93,7.88-4.56c5.23,0.5,12.18-1.21,15.24,1.54c2.67,2.4,1.15,9.66,1.16,14.77
	c0.08,30.63,0.07,61.26,0.09,91.89C260.74,1364.54,260.74,1366.52,260.74,1369.05z"/>
<path class="st0" d="M1552.31,1369.08c-8.92,0-16.87,0-25.35,0c-0.1-1.92-0.26-3.68-0.26-5.44c-0.02-34.45,0.07-68.89-0.11-103.34
	c-0.03-4.58,1.26-6.06,5.85-5.97c17.64,0.37,35.29,0.06,52.91,0.69c19.6,0.71,35.78,13.4,39.57,30.12
	c4.49,19.81-2.47,35.71-20.11,45.97c-0.56,0.33-1.07,0.73-2.33,1.58c8.27,11.91,16.46,23.72,25.38,36.57
	c-5.97,0-11.19-0.59-16.23,0.13c-8.73,1.25-14.15-2.03-18.34-9.66c-3.82-6.96-8.81-13.3-13.53-19.74c-1.03-1.41-3.03-2.85-4.65-2.94
	c-6.31-0.34-12.64-0.07-18.97-0.15c-3.16-0.04-3.9,1.6-3.86,4.39c0.1,7.32,0.03,14.64,0.02,21.96
	C1552.31,1365.05,1552.31,1366.84,1552.31,1369.08z M1552.33,1295.73c0,5.66,0.05,11.31-0.02,16.97c-0.03,2.71,1.1,4.04,3.84,3.96
	c8.8-0.27,17.65-0.06,26.4-0.91c9.95-0.97,16.7-8.45,17.15-17.73c0.57-11.91-4.41-19.85-15.4-21.45c-9.62-1.4-19.53-0.96-29.32-1.01
	c-0.88,0-2.46,2.38-2.53,3.71C1552.16,1284.74,1552.33,1290.24,1552.33,1295.73z"/>
<path class="st0" d="M1306.65,1332.75c8.46,12.21,16.65,24.01,25.31,36.5c-9.22,0-17.5,0.14-25.77-0.14
	c-1.41-0.05-3.13-1.65-4.08-2.98c-5.97-8.41-11.87-16.88-17.53-25.49c-1.88-2.86-4.05-3.96-7.4-3.82
	c-5.32,0.22-10.66,0.21-15.98,0.02c-3.74-0.13-4.92,1.39-4.82,5.03c0.22,7.15,0.08,14.31,0.05,21.47c-0.01,1.78-0.16,3.57-0.25,5.63
	c-8.47,0-16.54,0-25.06,0c-0.1-1.72-0.28-3.32-0.29-4.92c-0.02-34.61,0.08-69.23-0.12-103.84c-0.03-4.74,1.5-5.96,5.95-5.87
	c17.64,0.35,35.29,0.05,52.92,0.69c19.57,0.72,35.88,13.5,39.47,30.22c4.14,19.26-2.52,37.28-20.2,45.92
	C1308.29,1331.45,1307.81,1331.91,1306.65,1332.75z M1256.47,1295.59c0,5.66,0.05,11.31-0.02,16.97c-0.03,2.61,0.86,4.17,3.71,4.08
	c8.97-0.28,17.99-0.02,26.89-0.96c9.94-1.06,16.46-8.65,16.8-18.03c0.42-11.68-4.54-19.51-15.27-21.07
	c-9.63-1.4-19.53-0.98-29.32-1.04c-0.92-0.01-2.58,2.3-2.66,3.6C1256.3,1284.61,1256.47,1290.11,1256.47,1295.59z"/>
<path class="st0" d="M625.95,1332.76c8.47,12.2,16.67,24,25.35,36.5c-9.24,0-17.52,0.14-25.78-0.14c-1.41-0.05-3.14-1.64-4.08-2.97
	c-5.97-8.41-11.86-16.88-17.54-25.49c-1.88-2.86-4.04-3.97-7.39-3.83c-5.32,0.22-10.66,0.21-15.98,0.02
	c-3.72-0.13-4.94,1.37-4.82,5.02c0.22,7.15,0.08,14.31,0.05,21.47c-0.01,1.79-0.15,3.57-0.25,5.63c-8.47,0-16.54,0-25.06,0
	c-0.1-1.71-0.28-3.31-0.29-4.91c-0.02-34.61,0.08-69.23-0.12-103.84c-0.03-4.72,1.47-5.97,5.94-5.88
	c17.64,0.35,35.29,0.05,52.92,0.69c19.58,0.72,35.88,13.49,39.48,30.21c4.14,19.26-2.51,37.27-20.19,45.92
	C627.6,1331.44,627.13,1331.9,625.95,1332.76z M575.78,1295.64c0,5.66,0.05,11.31-0.02,16.97c-0.03,2.64,0.95,4.13,3.75,4.04
	c8.97-0.28,17.99-0.01,26.89-0.97c9.94-1.07,16.43-8.67,16.76-18.07c0.4-11.68-4.55-19.47-15.32-21.03
	c-9.63-1.39-19.53-0.98-29.32-1.03c-0.91-0.01-2.54,2.32-2.61,3.64C575.61,1284.65,575.78,1290.15,575.78,1295.64z"/>
<path class="st0" d="M1568.59,310.04c0-6.16,0.12-12.32-0.05-18.47c-0.1-3.46,1.39-4.82,4.69-4.82c7.49-0.01,14.98,0.02,22.47-0.22
	c3.47-0.11,4.64,1.02,4.51,4.58c-0.69,18.61-1.2,37.22-1.7,55.83c-0.52,19.45-0.88,38.9-1.46,58.35
	c-1.16,39.05-2.49,78.09-3.63,117.14c-0.55,18.95-0.94,37.9-1.1,56.86c-0.04,4.31-0.81,6.24-5.67,6.14
	c-10.69-0.22-10.89,0.03-11.24-10.61c-0.54-16.29-0.72-32.59-1.14-48.88c-0.97-38.06-2-76.12-3-114.19
	c-0.66-25.26-1.38-50.53-1.96-75.8c-0.2-8.64-0.03-17.28-0.03-25.93C1569.05,310.04,1568.82,310.04,1568.59,310.04z"/>
<path class="st0" d="M2233.82,1300.94c0,5.69-0.21,10.52,0.07,15.32c0.21,3.61-1.27,4.57-4.63,4.55
	c-14.32-0.11-28.65,0.12-42.97-0.13c-4.91-0.09-6.94,1.23-6.48,6.46c0.47,5.29,0.35,10.66,0.03,15.97
	c-0.26,4.34,1.16,5.81,5.62,5.75c16.99-0.22,33.98-0.09,50.97-0.09c1.95,0,3.9,0,6.16,0c0,7.04,0,13.44,0,20.16
	c-29.28,0-58.34,0-87.88,0c-0.1-1.64-0.29-3.24-0.29-4.84c-0.02-34.64,0.09-69.27-0.13-103.91c-0.03-4.79,1.58-5.87,5.98-5.84
	c24.99,0.16,49.97,0.15,74.96,0c4.23-0.03,6.17,1.05,5.66,5.6c-0.53,4.72,1.11,11.03-1.37,13.79c-2.17,2.41-8.75,1.01-13.38,1.04
	c-12.49,0.08-24.99,0.03-37.48,0.03c-10.51,0-8.59,0.05-8.74,8.48c-0.07,3.99,0.3,8.02-0.09,11.98c-0.47,4.81,1.57,5.84,5.99,5.77
	c13.99-0.24,27.98-0.09,41.97-0.09C2229.58,1300.94,2231.37,1300.94,2233.82,1300.94z"/>
<path class="st0" d="M1068.34,1300.94c0,5.98-0.09,11.28,0.03,16.57c0.08,3.79-2.6,3.22-4.83,3.23
	c-13.99,0.04-27.98,0.02-41.98,0.03c-7.11,0.01-7.12,0.03-7.12,7.11c0,5.16,0.21,10.34-0.07,15.48c-0.22,4.09,1.17,5.53,5.36,5.49
	c16.99-0.19,33.98-0.08,50.97-0.07c1.97,0,3.94,0,6.32,0c0,6.86,0,13.26,0,20.08c-29.13,0-58.31,0-87.83,0
	c-0.09-1.76-0.25-3.39-0.25-5.01c-0.01-34.47,0.09-68.94-0.12-103.41c-0.03-4.92,1.5-6.16,6.22-6.12
	c24.82,0.2,49.64,0.18,74.46,0.02c4.41-0.03,6.53,1.04,5.92,5.86c-0.37,2.95-0.34,6.02-0.01,8.98c0.49,4.37-1.06,5.79-5.51,5.72
	c-14.99-0.24-29.98-0.13-44.97-0.08c-12.62,0.04-10.26-0.87-10.49,10.22c-0.07,3.5,0.27,7.02-0.08,10.48
	c-0.46,4.57,1.47,5.59,5.72,5.52c13.99-0.24,27.98-0.09,41.98-0.09C1063.89,1300.94,1065.7,1300.94,1068.34,1300.94z"/>
<path class="st0" d="M314.88,1369.05c-8.99,0-16.94,0-25.32,0c-0.11-1.8-0.29-3.4-0.29-5c-0.02-34.61,0.08-69.23-0.12-103.84
	c-0.03-4.75,1.51-5.95,5.96-5.86c17.64,0.35,35.29,0.05,52.92,0.69c19.41,0.71,35.3,13.1,39.38,29.73
	c6.36,25.97-9.77,48.95-36.59,51.48c-10.24,0.97-20.59,0.96-30.89,0.96c-4.03,0-5.19,1.35-5.1,5.18
	C315.02,1351.15,314.88,1359.93,314.88,1369.05z M314.89,1295.61c0,5.49,0.1,10.99-0.04,16.48c-0.07,2.94,1,4.32,4.02,4.24
	c8.49-0.2,17.01,0.09,25.46-0.59c10.33-0.83,17.42-8.18,17.94-17.55c0.67-12.11-4.37-20.01-15.73-21.69
	c-9.46-1.4-19.22-0.94-28.85-0.98c-0.92,0-2.59,2.3-2.66,3.6C314.73,1284.61,314.9,1290.12,314.89,1295.61z"/>
<path class="st0" d="M750.98,1369.27c4.19-9.4,8.03-18.01,11.86-26.62c12.38-27.78,24.83-55.54,37.07-83.39
	c1.57-3.57,3.44-5.16,7.42-4.93c5.65,0.32,11.34-0.14,16.98,0.23c1.76,0.11,4.32,1.42,4.98,2.87
	c16.51,36.5,32.82,73.09,49.14,109.67c0.19,0.43,0.16,0.96,0.33,2.14c-8.37,0-16.6,0.12-24.81-0.15c-1.05-0.04-2.39-2-2.98-3.34
	c-2.56-5.77-5.03-11.59-7.26-17.5c-1.11-2.93-2.76-4.01-5.93-3.98c-15.32,0.15-30.65,0.13-45.98,0.01c-2.92-0.02-4.53,0.87-5.6,3.67
	c-2.23,5.9-4.99,11.61-7.16,17.53c-1.12,3.05-2.82,3.94-5.93,3.85C766.03,1369.12,758.93,1369.27,750.98,1369.27z M815.69,1280.87
	c-0.5,0-1-0.01-1.49-0.01c-5.98,14.4-11.96,28.8-18.12,43.63c12.9,0,24.87,0,37.66,0C827.54,1309.5,821.62,1295.19,815.69,1280.87z"
	/>
<path class="st0" d="M756.74,1275.34c-11.16,0-21.45,0.18-31.73-0.09c-4.17-0.11-5.41,1.25-5.38,5.37
	c0.15,27.12,0.08,54.25,0.07,81.37c0,2.15,0,4.29,0,6.86c-8.59,0-16.78,0-25.62,0c0-2.05,0-3.99,0-5.94
	c0-27.29-0.11-54.58,0.1-81.87c0.04-4.65-1.35-5.95-5.9-5.8c-10.12,0.32-20.26,0.1-31.14,0.1c0-6.43-0.08-12.51,0.1-18.59
	c0.02-0.75,1.29-1.82,2.18-2.11c1.22-0.4,2.63-0.23,3.96-0.23c28.96-0.01,57.93,0.09,86.89-0.1c4.84-0.03,7.07,1.08,6.57,6.36
	C756.39,1265.27,756.74,1269.94,756.74,1275.34z"/>
<path class="st0" d="M973.64,1275.34c-10.97,0-21.09,0.23-31.2-0.1c-4.59-0.15-5.97,1.25-5.93,5.85
	c0.19,26.96,0.09,53.91,0.09,80.87c0,2.15,0,4.3,0,6.88c-8.57,0-16.76,0-25.62,0c0-2.01,0-3.95,0-5.89c0-27.29-0.1-54.58,0.1-81.87
	c0.03-4.59-1.26-5.99-5.86-5.84c-10.12,0.33-20.27,0.1-31.18,0.1c0-6.4-0.1-12.48,0.12-18.56c0.03-0.79,1.58-1.9,2.62-2.2
	c1.39-0.4,2.97-0.17,4.47-0.17c28.13,0,56.26-0.01,84.39,0c8,0,8,0.01,8.01,8.23C973.64,1266.61,973.64,1270.58,973.64,1275.34z"/>
<path class="st0" d="M2102.06,1368.99c-8.79,0-16.86,0-25.62,0c0-2.15,0-4.08,0-6.02c0-27.29-0.1-54.58,0.1-81.87
	c0.03-4.54-1.17-6.03-5.83-5.87c-10.12,0.35-20.27,0.11-31.21,0.11c0-6.38-0.08-12.45,0.1-18.53c0.02-0.77,1.24-1.86,2.13-2.16
	c1.21-0.41,2.63-0.24,3.96-0.24c28.96-0.01,57.92-0.01,86.88,0c6.52,0,6.52,0.03,6.54,6.69c0.01,4.47,0,8.95,0,14.24
	c-2.37,0-4.29,0-6.2,0c-8.16,0-16.33,0.3-24.46-0.11c-5.01-0.26-6.55,1.17-6.5,6.32c0.25,26.95,0.12,53.91,0.12,80.87
	C2102.06,1364.53,2102.06,1366.64,2102.06,1368.99z"/>
<path class="st0" d="M1558.8,392.2c-6.89-4.73-14.24-8.92-20.58-14.29c-19.05-16.13-29-37.07-31.72-61.81
	c-2.43-22.11,2.59-41.57,18.65-57.53c9.73-9.66,21.89-13.86,35.21-15.96c21.38-3.37,41.09,2.58,60.85,9.39
	c12.25,4.22,21.75,15.5,22.82,28.46c0.5,5.97-1.35,8.27-7.27,7.59c-11.58-1.33-21.31-6.19-27.26-16.74
	c-6.59-11.69-25.1-20.02-40.27-17.8c-3.61,0.53-7.22,1.18-10.77,2.01c-21.59,5.02-32.38,20.04-37.21,40.47
	c-3.44,14.55-1.42,28.38,5.83,41.43c6.05,10.87,13.3,20.93,23.84,27.75c7.1,4.59,10.58,10.03,9.21,18.49
	c-0.39,2.38-0.06,4.88-0.06,7.32C1559.66,391.39,1559.23,391.79,1558.8,392.2z"/>
<path class="st0" d="M1608.01,389.97c18.11,3.1,32.19,11.64,41.55,27.38c5.54,9.32,7.95,19.71,9.33,30.26
	c2.35,17.95,0.25,35.47-7,52.17c-8.27,19.03-23.04,29.96-43.18,33.96c-1.41,0.28-2.92,0.04-4.95,0.04c0-6.03-0.13-11.82,0.12-17.58
	c0.05-1.03,1.54-2.48,2.68-2.92c20.6-7.99,28.14-24.83,29.91-45.04c1.43-16.33-1.67-31.92-12.17-45.09
	c-3.36-4.21-8.18-7.23-12.01-11.11c-1.81-1.83-3.78-4.28-4.08-6.66C1607.57,400.51,1608.01,395.5,1608.01,389.97z"/>
<path class="st0" d="M1564.17,516.03c0,5.31,0.41,10.33-0.21,15.21c-0.23,1.82-2.59,4.03-4.5,4.88
	c-12.4,5.47-20.62,14.27-23.4,27.78c-2.77,13.46,1.75,24.36,12.24,32.62c11.26,8.86,24.53,11.6,38.55,10.2
	c11.05-1.1,22.02-3.05,33.06-4.39c3.35-0.41,6.79-0.06,10.18-0.06c0.08,0.43,0.17,0.87,0.25,1.3c-1.19,0.71-2.31,1.59-3.58,2.09
	c-21.31,8.49-43.1,14.33-66.38,13.3c-21.22-0.94-38.78-14.6-43.11-34.21C1510.63,554.68,1534.32,519.45,1564.17,516.03z"/>
<path class="st0" d="M102.41,1369.06c-8.23,0-16.19,0-24.74,0c-0.11-1.61-0.3-3.19-0.3-4.78c-0.02-34.8,0.04-69.61-0.09-104.41
	c-0.02-4.02,0.99-5.75,5.26-5.53c5.48,0.29,10.99,0.12,16.49,0.07c2.61-0.02,3.97,0.86,3.97,3.76c-0.07,36.3-0.08,72.6-0.11,108.91
	C102.88,1367.56,102.66,1368.04,102.41,1369.06z"/>
<path class="st0" d="M2023.55,1369.06c-8.4,0-16.35,0-24.77,0c-0.11-1.77-0.29-3.37-0.29-4.97c-0.02-34.64,0.09-69.28-0.13-103.91
	c-0.03-4.79,1.57-6.08,5.99-5.83c5.15,0.29,10.32,0.13,15.49,0.06c2.79-0.04,4.29,0.79,4.29,3.96c-0.08,36.14-0.06,72.27-0.1,108.41
	C2024.03,1367.41,2023.77,1368.04,2023.55,1369.06z"/>
<path class="st0" d="M1554.61,115.63c-0.39-11.65,2.08-22.33,8.49-31.9c11.9-17.75,32.68-18,45.03-0.61
	c12.82,18.05,12.27,48.76-1.19,66.12c-11.76,15.18-30.62,15.08-42.27-0.23C1557.11,139.06,1554.04,127.77,1554.61,115.63z
	 M1609.24,116.21c-0.33-10.83-2.4-21.13-9.59-29.72c-8.16-9.76-19.15-9.58-27.06,0.34c-12.32,15.46-12.39,42.67-0.14,58.25
	c8.15,10.37,19.42,10.37,27.67-0.01C1606.84,136.62,1608.99,126.71,1609.24,116.21z"/>
<path class="st0" d="M1602.21,224.27c-11.13,0-21.57,0.12-32.01-0.18c-1.01-0.03-2.71-2.58-2.79-4.04
	c-0.57-9.96-0.79-19.93-1.13-29.9c-0.02-0.67,0-1.33-0.02-2c-0.35-11.3-0.35-11.3,11.28-11.3c8.63,0,17.25,0,26.77,0
	C1603.62,192.66,1602.94,208.02,1602.21,224.27z"/>
<path class="st0" d="M1575.46,632.71c5.75,0,10.36,0,15.85,0c-2.48,33.47-4.94,66.66-7.4,99.86c-0.29,0.02-0.57,0.04-0.86,0.05
	C1580.52,699.46,1578.01,666.29,1575.46,632.71z"/>
</svg>
